<?xml version="1.0" encoding="utf-8"?>
<svg viewBox="-0.1 0 1350 1320.303" clip-rule="evenodd" fill-rule="evenodd" stroke-linejoin="round" stroke-miterlimit="1.414" xmlns="http://www.w3.org/2000/svg">
  <path d="M 471.573 1087.175 L 251.521 1086.955 L 251.521 823.835 C 251.521 767.615 273.329 738.355 321.438 731.67 L 471.574 731.67 C 578.642 731.67 647.902 799.177 647.902 908.436 C 647.902 1020.655 580.395 1087.066 471.574 1087.175 L 471.573 1087.175 Z M 251.521 377.481 L 251.521 308.221 C 251.521 247.619 277.164 218.797 333.383 215.071 L 446.04 215.071 C 542.587 215.071 600.45 272.824 600.45 369.591 C 600.45 443.234 560.779 529.261 449.547 529.261 L 251.521 529.261 L 251.521 377.481 Z M 752.558 640.055 L 712.778 617.699 L 747.518 588 C 787.955 553.26 855.681 475.124 855.681 340.33 C 855.681 133.866 695.572 0.716 447.793 0.716 L 165.055 0.716 L 165.055 0.606 L 132.836 0.606 C 59.412 3.346 0.563 63.072 -0.204 136.935 L -0.204 1308.434 L 453.382 1308.434 C 728.778 1308.434 906.53 1158.517 906.53 926.299 C 906.53 801.259 849.106 694.41 752.558 640.055" style="fill: rgb(255, 255, 255);" transform="matrix(0.9999999999999999, 0, 0, 0.9999999999999999, 0, 1.1368683772161603e-13)"/>
  <path d="M 1024.661 1146.603 C 1024.661 1057.111 1096.839 984.709 1185.768 984.709 C 1274.922 984.709 1347.437 1057.111 1347.437 1146.603 C 1347.437 1235.982 1274.922 1308.497 1185.767 1308.497 C 1096.839 1308.497 1024.661 1235.982 1024.661 1146.603" fill="#00bafc" transform="matrix(0.9999999999999999, 0, 0, 0.9999999999999999, 0, 1.1368683772161603e-13)"/>
</svg>